<?xml version="1.0" encoding="UTF-8"?>
<!DOCTYPE svg PUBLIC "-//W3C//DTD SVG 1.1//EN" "http://www.w3.org/Graphics/SVG/1.1/DTD/svg11.dtd">
<!-- Creator: CorelDRAW 2019 (64-Bit) -->
<svg xmlns="http://www.w3.org/2000/svg" xml:space="preserve" width="162.086mm" height="47.2205mm" version="1.1" style="shape-rendering:geometricPrecision; text-rendering:geometricPrecision; image-rendering:optimizeQuality; fill-rule:evenodd; clip-rule:evenodd"
viewBox="0 0 162.085 47.2202"
 xmlns:xlink="http://www.w3.org/1999/xlink"
 xmlns:xodm="http://www.corel.com/coreldraw/odm/2003">
 <defs>
  <style type="text/css">
   <![CDATA[
    .fil1 {fill:#E42526}
    .fil2 {fill:#FDEB07}
    .fil0 {fill:white}
   ]]>
  </style>
 </defs>
 <g id="Layer_x0020_1">
  <metadata id="CorelCorpID_0Corel-Layer"/>
  <g id="_889871200">
   <path class="fil0" d="M146.1706 3.46c-6.5443,-2.5677 -13.8607,-3.5491 -20.8619,-3.4537 -6.6433,0.0901 -13.2705,1.0438 -19.8079,2.1606 -7.4324,1.2707 -14.8098,2.8474 -22.1719,4.4655 -12.8168,2.8153 -25.7153,6.0593 -38.8298,7.1515 -4.0346,0.3363 -8.1251,0.4806 -12.0834,-0.5246 -3.8934,-0.9867 -7.3705,-3.0769 -10.4249,-5.6455 0.0194,1.0034 0.1772,2.0176 0.4291,2.9868 0.4942,1.8976 1.597,3.488 2.7832,5.0202 -2.6478,0.2076 -5.3149,0.3527 -7.9685,0.1382 -2.4801,-0.2005 -4.941,-0.7612 -7.2912,-1.5763 -2.14,-0.7422 -4.3379,-1.6238 -6.1442,-2.9983 -1.2513,-0.9519 -2.6632,-2.274 -3.7993,-3.3314 0,2.5052 1.3022,5.1641 2.6992,7.2486 1.9196,2.9785 4.3529,5.7221 7.0613,8.0362 2.5429,2.1728 5.3775,3.8397 8.5998,4.8386 3.4573,1.0729 7.1185,1.3886 10.7214,1.1463 1.9512,-0.1301 3.8934,-0.4208 5.8021,-0.8512 1.564,-0.3518 3.0852,-0.8249 4.6465,-1.2017 0.5744,-0.138 1.1574,-0.3017 1.7355,-0.0954 0.6977,0.2493 0.7572,0.958 0.6741,1.6 -0.2005,1.571 -1.1323,3.1724 -2.3945,4.1291 -1.182,0.8939 -2.5895,0.9815 -3.8478,0.1799 -1.1182,-0.7115 -2.133,-1.4409 -3.4673,-1.6999 -1.6788,-0.3266 -3.5347,-0.1411 -5.2222,0.0277 -1.9114,0.1926 -3.816,0.5136 -5.7428,0.5136 -2.6311,0 -5.0462,-0.6354 -7.4865,-1.5543 -1.736,-0.6534 -3.6029,-1.5129 -5.2885,-2.2851 2.2572,5.1057 7.297,8.7225 11.9752,11.4604 6.1247,3.5835 12.9425,5.8684 19.9282,7.0381 7.0188,1.1752 14.1332,1.0104 21.177,0.1345 7.2623,-0.904 14.4142,-2.5414 21.3845,-4.7574 6.1693,-1.9615 12.18,-4.3709 18.1252,-6.9233 6.3543,-2.727 12.6324,-5.617 19.1418,-7.9645 5.1608,-1.8617 10.4781,-3.5196 15.9304,-4.2561 5.3545,-0.7237 11.7793,-0.7985 16.1275,2.9304 1.9902,1.7064 3.1417,4.1286 3.2609,6.7501 0.1216,1.4699 0.1318,3.0106 -0.0528,4.4778 -0.1183,0.9427 -0.2061,1.9474 -0.5145,2.85 6.6511,-5.9115 9.1534,-15.9148 5.2747,-24.114 -1.9576,-4.1357 -6.3338,-9.0883 -14.0778,-12.0513z"/>
   <path class="fil1" d="M130.6025 1.7272c-13.7042,-1.3094 -37.2579,4.2838 -56.6964,8.5567 -15.5806,3.423 -28.2484,5.5793 -36.7524,5.2539 -4.7693,-0.3223 -9.4602,-1.6884 -13.2165,-4.7583 0.5924,1.4752 3.4824,5.6332 4.714,6.0928 -4.9716,0.4097 -10.0847,0.984 -15.0117,-0.0902 -3.9353,-0.8384 -8.2841,-2.2754 -11.3926,-5.1641 2.3998,4.4681 6.0663,8.5968 10.1091,11.6388 7.2307,5.4411 17.2863,5.2683 25.551,2.6024 0.1521,-0.0501 1.8314,-0.5372 2.7103,-0.5372 2.1245,0.0747 3.6719,1.5586 2.4551,5.0106 -1.0173,2.5964 -3.0949,4.6255 -5.492,4.6616 -3.1821,0 -3.3979,-2.5247 -7.0368,-2.4068 -6.3671,-0.1689 -10.4544,2.6407 -18.9997,-2.1317 1.7342,1.7179 11.7677,12.7157 33.2587,14.9819 5.4772,0.5729 11.624,0.0994 14.4863,-0.2009 18.6343,-1.9571 33.1669,-8.2979 45.9894,-13.8911 10.8759,-4.8998 23.9273,-9.9999 33.6941,-10.5412 8.1976,-0.66 14.5618,1.9877 17.0268,7.0841 1.1031,2.278 1.3608,4.8831 0.8058,7.5833 8.181,-11.6802 4.5723,-31.4039 -26.2026,-33.7444z"/>
   <path class="fil1" d="M12.9535 23.7062c0.0198,0.0135 0.018,0.0135 0,0z"/>
   <path class="fil2" d="M71.5252 14.7164c4.2549,-1.1612 7.8316,1.1057 9.2185,4.3045l0.0012 0.0017c0.1772,0.3958 0.3666,0.4802 0.5631,0.4828 0.3879,0.0044 2.9442,-0.4511 3.8052,-1.5085 0,0 0.8648,3.178 -2.8792,5.0797 0,0 -0.5271,0.2572 -0.5316,0.8177 -0.0025,0.536 -0.2823,3.2585 -0.4273,4.0099 -0.0638,0.3351 -0.3408,1.0536 0.3184,1.0813 0.5452,0.0219 2.1672,-0.3769 3.182,-3.1685 0.0316,-0.1746 0.007,0.0124 0.007,0.0124 -0.7506,6.1551 -4.5648,10.7365 -8.3879,11.9712 -2.6714,0.8636 -2.3158,-0.8926 -1.8532,-1.9724 1.5904,-4.1467 1.6251,-6.19 1.8603,-8.8237 0.2462,-2.7462 -0.4112,-10.8653 -4.8766,-12.2881zm-3.0699 5.4907l0 0c-1.1638,0.2533 -1.8379,3.3386 -1.9724,7.7139 -0.1341,4.3806 0.187,8.2688 1.7649,7.9408 1.5736,-0.3435 1.7024,-4.4115 1.8106,-8.7882 0.12,-4.3748 -0.4954,-7.114 -1.6031,-6.8665zm6.2866 5.7594l0 0c0.1637,-6.4804 -2.7142,-10.6077 -6.3419,-9.621 -3.8241,1.0521 -6.2674,5.733 -6.5549,12.3422 -0.5883,4.7795 1.7742,11.8122 6.2145,11.077 4.7639,-1.0452 6.5025,-7.2764 6.6823,-13.7982z"/>
   <path class="fil2" d="M67.0778 14.0186c-3.7136,2.3655 -6.4903,8.3409 -6.8239,14.601 -0.0677,1.2732 -0.6296,10.3531 6.0694,13.3703 -4.3832,0.6881 -9.1572,1.2733 -11.5017,1.3512 0,0 0.6807,-2.2174 0.8236,-5.9715 0.1174,-3.0976 -0.3588,-5.6776 -1.4878,-5.5115 -0.8351,0.1232 -1.8051,3.0576 -1.8746,5.639 -0.0896,3.4076 0.6521,5.927 0.6521,5.927 -2.6257,0.0678 -7.3829,0.1464 -13.4052,-1.0329 0.8083,-0.127 7.5917,-3.9584 8.4557,-11.9377 0.9621,-8.8873 -6.8599,-11.2071 -10.424,-12.6937 5.1034,0.1592 8.665,-0.1411 16.0864,-1.2416 0,0 -0.9094,1.4356 -0.9234,5.4495 -0.0136,3.6691 0.7726,5.6138 1.498,5.6028 0.8565,-0.0127 1.6607,-1.917 1.8032,-5.8148 0.1482,-3.9998 -0.5343,-5.5251 -0.5343,-5.5251 3.4274,-0.6133 5.7511,-0.9259 11.5866,-2.212z"/>
   <path class="fil2" d="M80.4456 11.1338c1.4697,0.364 7.9666,2.479 8.3706,11.5105 0.3685,8.2712 -3.0351,13.2401 -4.0596,14.5411 0,0 2.2314,-0.7462 4.5469,-1.6374 2.5162,-0.9691 5.0053,-1.9655 5.0053,-1.9655 0,0 -0.7004,-1.8312 0.1591,-5.0449 0.9313,-3.4783 2.2646,-4.4751 2.2646,-4.4751 0,0 -0.3201,1.4118 0.696,4.0597 1.0033,2.6147 2.1592,3.294 2.1592,3.294l3.8329 -1.7218c0,0 -1.192,-2.6143 0.6058,-6.5469 1.52,-3.3244 3.3912,-7.366 1.852,-12.2323 -0.7928,-2.5081 -1.8212,-3.9506 -2.3361,-4.5623 -0.5952,0.1012 -5.4353,1.0228 -6.5152,1.2374 1.1817,0.4845 3.718,2.0058 4.1826,6.2176 0.3198,2.8984 -1.1624,5.3703 -1.1624,5.3703 0,0 0.1481,-1.2997 -0.8985,-2.7819 -0.998,-1.4132 -1.9627,-1.7513 -1.9627,-1.7513 0,0 -0.0954,1.9725 -1.2551,4.1414 -0.8946,1.6708 -2.0584,2.5775 -2.0584,2.5775 0,0 0.9372,-3.6129 0.0054,-7.2776 -0.861,-3.387 -2.6738,-4.7047 -3.4464,-5.1268 -1.6179,0.3429 -8.4969,1.8462 -9.9859,2.1742zm33.9629 -6.4942l0 0c1.4228,-0.1732 5.5087,-0.5844 7.0441,-0.6824 -6.5477,6.6758 -3.6223,17.0536 -0.2195,18.5653 -2.6733,0.9242 -5.2115,1.8114 -7.0441,2.602 0.9905,-2.5304 -0.001,-8.1398 -1.0579,-7.797 -1.21,0.3932 -1.8465,5.1378 -0.8941,8.5818 -1.9971,0.8191 -5.6043,2.3668 -7.6585,3.2928 3.4731,-6.7157 6.3535,-16.1126 0.2286,-23.083 1.7605,-0.3047 5.7771,-0.9466 7.1823,-1.1528 -0.7893,3.1196 -0.1688,8.2951 0.93,8.0348 1.3406,-0.3157 1.8742,-4.9676 1.4891,-8.3615z"/>
   <path class="fil2" d="M151.1097 19.9257c-0.4953,0.0832 -1.0783,0.0265 -1.6873,-0.1635 -0.959,-0.2985 -1.6332,-0.5769 -2.4527,-0.8828l0.0597 -3.2819c0.3985,0.8345 1.6355,1.8286 2.3199,1.7358 0.1834,-0.0237 0.3388,-0.1635 0.3737,-0.3363 0.0551,-0.2739 -0.0968,-0.6283 -0.4278,-0.9937 -0.331,-0.3653 -0.9297,-0.9717 -1.4385,-1.5349 -2.2614,-2.5084 -1.3091,-4.2175 -0.7846,-4.6704 0.7508,-0.6477 1.6692,-0.4995 2.0475,-0.4207 1.3879,0.2879 2.4764,1.4478 2.9884,2.5967 0.2984,0.6714 0.4975,1.4048 0.3772,2.1936 -0.3062,-0.7985 -2.2975,-3.0241 -3.0076,-2.1382 -0.4773,0.5949 0.6527,1.4519 1.8246,2.4886 1.5791,1.3978 1.7727,2.4359 1.3856,3.9186 -0.2196,0.8371 -0.7644,1.352 -1.5781,1.4891z"/>
   <path class="fil2" d="M123.1567 12.6937c0,0 -0.0574,-1.9433 0.7113,-3.7979 0.7699,-1.8533 1.9091,-2.8681 2.6655,-2.198 0.7271,0.6463 0.1508,1.9112 -0.4705,2.6825 -0.6203,0.7708 -1.0063,1.1406 -1.8067,1.8559 -0.798,0.7159 -1.0996,1.4575 -1.0996,1.4575zm1.3663 1.4642l0 0c1.801,-1.6896 3.8654,-3.1666 4.6297,-5.3272 0.7642,-2.1633 0.7531,-3.6375 -0.7688,-4.5899 -1.4295,-0.8912 -4.0498,-0.8358 -6.5498,2.0833 -2.733,3.1903 -3.2508,8.7142 -2.4674,11.3978 0.6743,2.3049 1.9913,4.4295 4.5159,3.9326 4.4292,-0.8718 4.2739,-7.2667 4.2739,-7.2667 0,0 -1.6524,2.9371 -3.1516,3.0326 -1.5713,0.0997 -1.9485,-1.8881 -0.4819,-3.2626z"/>
   <path class="fil2" d="M133.4558 8.8176c0.6146,-1.5129 1.5331,-2.3448 2.1544,-1.8023 0.5943,0.5219 0.134,1.5557 -0.3657,2.1857 -0.4999,0.6297 -0.8116,0.9326 -1.4578,1.5182 -0.6448,0.5884 -0.8858,1.1929 -0.8858,1.1929 0,0 -0.0585,-1.582 0.5549,-3.0945zm1.0367 6.8556l0 0c-1.4868,0.1187 -1.6558,-1.4492 -0.4717,-2.5762 1.4532,-1.3828 3.1225,-2.5949 3.7304,-4.3585 0.6088,-1.7663 0.5887,-2.9648 -0.6517,-3.7329 -1.1673,-0.7199 -3.3228,-0.6131 -5.3365,1.7745 -2.2029,2.6118 -2.6699,7.1696 -2.0487,9.3591 0.6293,2.2094 1.7931,3.6375 4.006,3.0523 3.3689,-0.8917 4.256,-5.9424 4.256,-5.9424 0,0 -1.9035,2.2965 -3.4838,2.424z"/>
   <path class="fil2" d="M139.3303 5.2914c1.0727,3.7869 0.3242,10.5176 -2.0656,13.3954 2.9492,-0.2881 5.69,-0.3377 8.2789,0.0747l0.1485 -5.2969c-0.9804,2.4055 -6.4034,5.467 -2.071,-6.9264 -1.0649,-0.3571 -2.2974,-0.7985 -4.2908,-1.2469z"/>
   <path class="fil2" d="M154.2105 20.926c0.1554,0 0.214,-0.0083 0.2612,-0.0443 0.0461,-0.0343 0.0743,-0.0929 0.0743,-0.1535 0,-0.0845 -0.0439,-0.1482 -0.125,-0.1745 -0.0428,-0.015 -0.1079,-0.0207 -0.242,-0.0207l-0.1328 0 0 0.393 0.1643 0zm0.0102 -0.5175l0 0c0.1306,0 0.1925,0.0053 0.2656,0.029 0.1273,0.0401 0.214,0.1561 0.214,0.2881 0,0.1367 -0.0924,0.2502 -0.242,0.2932l0.2521 0.5535 -0.1746 0 -0.2317 -0.5245 -0.0125 -0.0026 -0.2263 0 -0.0191 0.0026 0 0.5245 -0.1575 0 0 -1.1638 0.332 0zm-0.8498 0.5782l0 0c0,-0.5174 0.3849,-0.8982 0.9073,-0.8982 0.5008,0 0.8902,0.3917 0.8902,0.8956 0,0.5013 -0.4028,0.9053 -0.8981,0.9053 -0.4999,0 -0.8994,-0.404 -0.8994,-0.9027zm1.9337 0.0032l0 0c0,0.5799 -0.449,1.0239 -1.0343,1.0239 -0.5898,0 -1.0345,-0.4415 -1.0345,-1.0239 0,-0.5941 0.4401,-1.0272 1.04,-1.0272 0.5798,0 1.0288,0.4485 1.0288,1.0272z"/>
  </g>
 </g>
</svg>
